<svg xmlns="http://www.w3.org/2000/svg" viewBox="0 0 115 82"><defs><style>.cls-1{fill:#084293}</style></defs><title>Asset 1</title><g id="Layer_2" data-name="Layer 2"><path class="cls-1" d="M5.88 74.74A3.66 3.66 0 0 1 7.22 76l-.92.67a2.94 2.94 0 0 0-1-1 2.62 2.62 0 0 0-1.3-.29 2.78 2.78 0 0 0-1.08.21 2.68 2.68 0 0 0-.86.58 2.65 2.65 0 0 0-.57.87 3.06 3.06 0 0 0 0 2.21 2.62 2.62 0 0 0 1.4 1.45 2.76 2.76 0 0 0 1.11.21 2.63 2.63 0 0 0 1.34-.34 3 3 0 0 0 1-1l.92.67a3.54 3.54 0 0 1-1.33 1.25A3.88 3.88 0 0 1 4 82a4.08 4.08 0 0 1-1.56-.3 4 4 0 0 1-1.26-.81 3.88 3.88 0 0 1-.85-4.28 3.81 3.81 0 0 1 .85-1.23 3.92 3.92 0 0 1 1.26-.82A4.06 4.06 0 0 1 4 74.27a3.85 3.85 0 0 1 1.88.47zm13.19 6.06v1.08H14.4V74.4h1.22v6.4h3.45zm11.83-6.23a3.83 3.83 0 0 1 1.26 6.33 4 4 0 0 1-1.26.81 4.06 4.06 0 0 1-1.55.3 4.11 4.11 0 0 1-1.55-.3 3.81 3.81 0 0 1-2.1-2 3.91 3.91 0 0 1 0-3 3.81 3.81 0 0 1 .85-1.23 3.92 3.92 0 0 1 1.26-.82 4.2 4.2 0 0 1 3.09-.09zm-2.62 1a2.64 2.64 0 0 0-.86.57 2.61 2.61 0 0 0-.57.87 2.91 2.91 0 0 0-.21 1.1 2.94 2.94 0 0 0 .21 1.11 2.67 2.67 0 0 0 .57.88 2.58 2.58 0 0 0 .86.58 2.76 2.76 0 0 0 1.08.21 2.72 2.72 0 0 0 1.08-.21 2.68 2.68 0 0 0 .86-.58 2.62 2.62 0 0 0 .57-.88 2.94 2.94 0 0 0 .21-1.11 2.87 2.87 0 0 0-.2-1.11 2.63 2.63 0 0 0-.57-.87 2.69 2.69 0 0 0-.86-.58 2.73 2.73 0 0 0-1.08-.21 2.78 2.78 0 0 0-1.09.24zm18.12 4.6a2.86 2.86 0 0 1-.65 1 2.78 2.78 0 0 1-1 .62 3.52 3.52 0 0 1-1.23.21 3.55 3.55 0 0 1-1.24-.21 2.72 2.72 0 0 1-1-.62 2.9 2.9 0 0 1-.65-1 3.55 3.55 0 0 1-.23-1.33V74.4h1.22v4.53a2.37 2.37 0 0 0 .14.87 1.64 1.64 0 0 0 .4.61 1.72 1.72 0 0 0 .6.37 2.27 2.27 0 0 0 1.48 0 1.65 1.65 0 0 0 .6-.37 1.75 1.75 0 0 0 .4-.61 2.3 2.3 0 0 0 .15-.87V74.4h1.21v4.45a3.55 3.55 0 0 1-.23 1.33zm11.84-5.51a3.78 3.78 0 0 1 1.3.76 3.37 3.37 0 0 1 .83 1.18 4 4 0 0 1 0 3 3.49 3.49 0 0 1-.83 1.19 3.75 3.75 0 0 1-1.3.78 4.94 4.94 0 0 1-1.7.28h-2.36V74.4h2.36a5 5 0 0 1 1.7.27zM55.4 80.8h1.13a3.47 3.47 0 0 0 1.2-.2 2.54 2.54 0 0 0 .91-.56 2.44 2.44 0 0 0 .57-.85 3 3 0 0 0 0-2.16 2.35 2.35 0 0 0-.57-.83 2.48 2.48 0 0 0-.91-.53 3.64 3.64 0 0 0-1.2-.19H55.4zm15-5.32v2.23h3v1.09h-3v3.08h-1.19V74.4h4.86v1.08h-3.64zm13.09 6.4V74.4h1.21v7.48h-1.18zm15.95-7.48h1.22V82h-.41l-4.6-5.18v5.05h-1.23v-7.6h.41l4.6 5.18V74.4zm13.14.27a3.78 3.78 0 0 1 1.3.76 3.36 3.36 0 0 1 .83 1.18 4 4 0 0 1 0 3 3.47 3.47 0 0 1-.83 1.19 3.75 3.75 0 0 1-1.3.78 4.94 4.94 0 0 1-1.7.28h-2.36V74.4h2.36a5 5 0 0 1 1.7.27zm-2.85 6.13h1.13a3.46 3.46 0 0 0 1.2-.2 2.54 2.54 0 0 0 .94-.6 2.46 2.46 0 0 0 .57-.85 3 3 0 0 0 0-2.16 2.37 2.37 0 0 0-.57-.83 2.48 2.48 0 0 0-.91-.53 3.64 3.64 0 0 0-1.2-.19h-1.13zM5.54 39.24a2.84 2.84 0 0 1-2.86-2.83A36.66 36.66 0 0 1 39.5 0a2.83 2.83 0 1 1 0 5.66A31 31 0 0 0 8.4 36.41a2.84 2.84 0 0 1-2.86 2.83zm24.23 1.3a15.79 15.79 0 0 1 1.4-6.59 16.63 16.63 0 0 1 3.78-5.29 17.48 17.48 0 0 1 5.61-3.54 18.52 18.52 0 0 1 6.89-1.28 15.33 15.33 0 0 1 8.48 2.29 13.82 13.82 0 0 1 5.3 6.45l-6.51 3.81a9.81 9.81 0 0 0-3-3.9 7.73 7.73 0 0 0-4.72-1.4 9.63 9.63 0 0 0-3.63.69 8.73 8.73 0 0 0-2.88 1.88 8.44 8.44 0 0 0-1.86 2.87 9.62 9.62 0 0 0-.68 3.65 9.18 9.18 0 0 0 .54 3.22 6.44 6.44 0 0 0 1.61 2.46 7.08 7.08 0 0 0 2.49 1.54 9 9 0 0 0 3.2.56 8.87 8.87 0 0 0 4.62-1.19A12.29 12.29 0 0 0 54 43.38l5.62 4.37a16.8 16.8 0 0 1-6.19 5.54 17.58 17.58 0 0 1-8.25 1.95A16.85 16.85 0 0 1 39 54.11a14.7 14.7 0 0 1-4.87-3 13.48 13.48 0 0 1-3.16-4.66 15.24 15.24 0 0 1-1.15-5.87zm49.32 14.3l2.84-16.15h4.69l1.16-6.52h-4.7l.46-2.61a3.48 3.48 0 0 1 1-2.1 3.82 3.82 0 0 1 2.52-.69 10.59 10.59 0 0 1 1.16.07l.64.07.84.09 1.07-6.37a13.47 13.47 0 0 0-5-.92 10.37 10.37 0 0 0-6.65 2.08 9.87 9.87 0 0 0-3.3 6.3l-.72 4.08h-3.2l-1.16 6.52H74l-2.85 16.14z" id="Layer_1-2" data-name="Layer 1"/></g></svg>