<svg data-name="Layer 1" xmlns="http://www.w3.org/2000/svg" viewBox="0 0 602.67 602.67"><circle cx="301.34" cy="301.34" r="301.34" fill="#0e4a9d"/><path d="M301.34 138.36a76.69 76.69 0 0 0-76.6 76.6v93.42h153.22v-93.42a76.69 76.69 0 0 0-76.62-76.6z" fill="none"/><path d="M311.26 106.17c-3.27-.3-6.58-.46-9.92-.46A109.36 109.36 0 0 0 192.1 214.95v126.06h218.48V214.95a109.38 109.38 0 0 0-99.32-108.78zm66.68 202.2h-153.2v-93.42a76.69 76.69 0 0 1 76.6-76.6 76.69 76.69 0 0 1 76.6 76.6z" fill="#b3c7e2"/><path fill="#ffd65a" d="M169.32 270.98h264.03V472H169.32z"/><path fill="#ffbf51" d="M337.34 270.98h96.01V472h-96.01z"/><path fill="#fefefe" d="M191.15 270.98h21.09V472h-21.09z"/></svg>