<svg id="Layer_17" xmlns="http://www.w3.org/2000/svg" viewBox="0 0 1594.1 1080"><style>.st0{fill:#2f79d7}.st1{fill:#fff}.st2{enable-background:new}.st3{fill:#013f95}.st4{opacity:.3}.st5{fill:#7f7f7f}.st6{fill:#c4c4c4}.st7,.st8{fill:#6be7e0}.st8{opacity:.34;enable-background:new}.st9{fill:#eaeaea}.st10{fill:#3079d8}.st11{opacity:.5;fill:#013f95;enable-background:new}.st12{fill:none;stroke:#fff;stroke-width:5.3959;stroke-linecap:round;stroke-linejoin:round;stroke-miterlimit:10}.st13{fill:#023e94}</style><path class="st0" d="M0 .3h1594.1v1078.9H0V.3z"/><path class="st1" d="M321.2 615.8h-74.7c-11 0-20-9-20-20v-74.7c0-11 9-20 20-20h74.7c11 0 20 9 20 20v74.7c0 11-9 20-20 20z"/><g class="st2"><path class="st3" d="M259.2 525.3c1.5.8 2.6 2 3.5 3.5l-2.9 2.1c-1.3-2.1-3.2-3.2-5.5-3.2-1.8 0-3.3.6-4.4 1.8-1.2 1.2-1.7 2.7-1.7 4.5 0 1.8.6 3.3 1.7 4.5s2.6 1.7 4.4 1.7c2.3 0 4.1-1.1 5.5-3.2l2.9 2.1c-.8 1.5-2 2.6-3.5 3.5-1.5.8-3.1 1.3-5 1.3-2.8 0-5.2-.9-7.2-2.8s-2.9-4.2-2.9-7 1-5.1 2.9-7c2-1.9 4.4-2.8 7.2-2.8 1.9-.2 3.6.2 5 1zm10.5 18.2h-3.9v-21.7h3.9v21.7zm16.1-12.5c1.5 1.4 2.3 3.2 2.3 5.3 0 2.1-.8 3.9-2.3 5.3-1.5 1.4-3.3 2.2-5.5 2.2s-3.9-.7-5.4-2.2-2.2-3.2-2.2-5.3c0-2.1.7-3.9 2.2-5.3 1.5-1.4 3.3-2.2 5.4-2.2 2.2.1 4 .8 5.5 2.2zm-8.1 2.5c-.7.7-1 1.7-1 2.8s.3 2.1 1 2.8c.7.7 1.6 1.1 2.7 1.1s1.9-.4 2.6-1.1 1.1-1.7 1.1-2.8-.4-2-1.1-2.8c-.7-.8-1.6-1.1-2.6-1.1-1.1 0-2 .4-2.7 1.1zm26.4 3.7c0 2-.6 3.6-1.9 4.8-1.2 1.2-2.8 1.8-4.7 1.8-1.9 0-3.5-.6-4.7-1.8-1.2-1.2-1.9-2.8-1.9-4.8v-8h3.9v8.3c0 .8.3 1.5.8 2s1.2.8 1.9.8c.8 0 1.4-.2 1.9-.8.5-.5.8-1.2.8-2v-8.3h3.9v8zm18-15.4v21.7h-3.6v-1.8c-1 1.4-2.6 2.1-4.6 2.1s-3.7-.7-5-2.1c-1.3-1.4-1.9-3.2-1.9-5.4s.6-3.9 1.9-5.4c1.3-1.4 3-2.1 5-2.1 1.8 0 3.3.6 4.3 1.7v-8.7h3.9zm-4.9 17.5c.7-.7 1.1-1.6 1.1-2.9 0-1.3-.4-2.2-1.1-2.9-.7-.7-1.6-1-2.5-1-1 0-1.9.4-2.6 1.1-.7.7-1.1 1.7-1.1 2.8 0 1.2.4 2.2 1.1 2.9s1.6 1.1 2.6 1.1c1-.1 1.8-.4 2.5-1.1z"/></g><g class="st2"><path class="st3" d="M250 557.4l-2 2.4c-1-.9-2-1.4-3.2-1.4-1 0-1.5.3-1.5 1 0 .3.1.5.3.7.2.2.6.4 1.2.6l1.4.6c1.4.6 2.4 1.2 3 1.8.6.6 1 1.5 1 2.6 0 1.4-.5 2.5-1.6 3.3s-2.4 1.2-4 1.2c-2.5 0-4.5-.9-5.9-2.8l2-2.4c1.3 1.3 2.6 1.9 4 1.9.5 0 1-.1 1.3-.3.3-.2.5-.5.5-.9 0-.3-.1-.5-.3-.7-.2-.2-.6-.4-1.1-.6l-1.5-.6c-1.3-.5-2.3-1.1-2.9-1.8-.6-.7-1-1.5-1-2.6 0-1.3.5-2.4 1.5-3.2 1-.8 2.2-1.1 3.8-1.1 2 .2 3.7.9 5 2.3zm15.4 0c1.5 1.4 2.3 3.2 2.3 5.3 0 2.1-.8 3.9-2.3 5.3-1.5 1.4-3.3 2.2-5.5 2.2s-3.9-.7-5.4-2.2-2.2-3.2-2.2-5.3c0-2.1.7-3.9 2.2-5.3 1.5-1.4 3.3-2.2 5.4-2.2 2.2.1 4 .8 5.5 2.2zm-8.1 2.5c-.7.7-1 1.7-1 2.8s.3 2.1 1 2.8c.7.7 1.6 1.1 2.7 1.1s1.9-.4 2.6-1.1 1.1-1.7 1.1-2.8-.4-2-1.1-2.8c-.7-.8-1.6-1.1-2.6-1.1-1.1 0-2 .4-2.7 1.1zm26.4 3.7c0 2-.6 3.6-1.9 4.8-1.2 1.2-2.8 1.8-4.7 1.8-1.9 0-3.5-.6-4.7-1.8-1.2-1.2-1.9-2.8-1.9-4.8v-8h3.9v8.3c0 .8.3 1.5.8 2s1.2.8 1.9.8c.8 0 1.4-.2 1.9-.8.5-.5.8-1.2.8-2v-8.3h3.9v8zm12.5-8v3.4h-1c-1.2 0-2.1.3-2.8.9-.7.6-1 1.6-1 2.8v7.1h-3.9v-14.3h3.6v1.7c1-1.3 2.3-1.9 3.9-1.9l1.2.3zm12.7.6c1.1.6 1.9 1.5 2.5 2.6l-2.7 2.1c-.9-1.4-2.1-2.1-3.4-2.1-1.1 0-2 .4-2.7 1.1-.7.7-1.1 1.7-1.1 2.8 0 1.1.4 2.1 1.1 2.8s1.6 1.1 2.7 1.1c1.3 0 2.5-.7 3.4-2l2.7 2.1c-.6 1.1-1.5 2-2.5 2.6-1.1.6-2.3 1-3.7 1-2.1 0-3.9-.7-5.4-2.2-1.5-1.4-2.2-3.2-2.2-5.3 0-2.1.7-3.9 2.2-5.3 1.5-1.4 3.3-2.2 5.4-2.2 1.4 0 2.6.3 3.7.9zm18.2 7.9h-10c.2.9.7 1.6 1.4 2.1s1.6.7 2.6.7c1.4 0 2.7-.5 4-1.4l1.6 2.7c-1.7 1.4-3.6 2.1-5.7 2.1-2.3 0-4.1-.7-5.6-2.2-1.5-1.4-2.2-3.2-2.2-5.3 0-2.1.7-3.9 2.2-5.3 1.4-1.4 3.2-2.2 5.3-2.2 2 0 3.6.6 4.9 1.9 1.3 1.3 1.9 2.8 1.9 4.7-.1.7-.2 1.4-.4 2.2zm-8.7-4.9c-.6.5-1 1.2-1.3 2.1h6.5c0-.9-.3-1.6-.9-2.1s-1.3-.8-2.2-.8c-.8 0-1.5.3-2.1.8z"/></g><g class="st2"><path class="st3" d="M291.5 593.8h-7.8l-1.1 2.5h-4.2l8.5-19.4h1.3l8.5 19.4h-4.2l-1-2.5zm-3.9-9.6l-2.5 6.4h5l-2.5-6.4z"/></g><path class="st1" d="M835.5 616h-74.7c-11 0-20-9-20-20v-74.7c0-11 9-20 20-20h74.7c11 0 20 9 20 20V596c0 11-9 20-20 20z"/><g class="st2"><path class="st3" d="M773.7 528.8c1.5.8 2.6 2 3.5 3.5l-2.9 2.1c-1.3-2.1-3.2-3.2-5.5-3.2-1.8 0-3.3.6-4.4 1.8-1.2 1.2-1.7 2.7-1.7 4.5 0 1.8.6 3.3 1.7 4.5s2.6 1.7 4.4 1.7c2.3 0 4.1-1.1 5.5-3.2l2.9 2.1c-.8 1.5-2 2.6-3.5 3.5-1.5.8-3.1 1.3-5 1.3-2.8 0-5.2-.9-7.2-2.8s-2.9-4.2-2.9-7 1-5.1 2.9-7c2-1.9 4.4-2.8 7.2-2.8 1.9-.3 3.6.1 5 1zm10.5 18.1h-3.9v-21.7h3.9v21.7zm16.1-12.5c1.5 1.4 2.3 3.2 2.3 5.3 0 2.1-.8 3.9-2.3 5.3-1.5 1.4-3.3 2.2-5.5 2.2-2.1 0-3.9-.7-5.4-2.2s-2.2-3.2-2.2-5.3c0-2.1.7-3.9 2.2-5.3 1.5-1.4 3.3-2.2 5.4-2.2 2.2.1 4 .8 5.5 2.2zm-8.1 2.6c-.7.7-1 1.7-1 2.8 0 1.1.3 2.1 1 2.8.7.7 1.6 1.1 2.7 1.1s1.9-.4 2.6-1.1c.7-.7 1.1-1.7 1.1-2.8 0-1.1-.4-2-1.1-2.8-.7-.8-1.6-1.1-2.6-1.1-1.1-.1-2 .3-2.7 1.1zm26.4 3.6c0 2-.6 3.6-1.9 4.8-1.2 1.2-2.8 1.8-4.7 1.8-1.9 0-3.5-.6-4.7-1.8-1.2-1.2-1.9-2.8-1.9-4.8v-8h3.9v8.3c0 .8.3 1.5.8 2s1.2.8 1.9.8c.8 0 1.4-.2 1.9-.8.5-.5.8-1.2.8-2v-8.3h3.9v8zm18.1-15.3V547h-3.6v-1.8c-1 1.4-2.6 2.1-4.6 2.1-2 0-3.7-.7-5-2.1-1.3-1.4-1.9-3.2-1.9-5.4s.7-3.9 1.9-5.4c1.3-1.4 3-2.1 5-2.1 1.8 0 3.3.6 4.3 1.7v-8.7h3.9zm-5 17.4c.7-.7 1.1-1.6 1.1-2.9 0-1.3-.4-2.2-1.1-2.9-.7-.7-1.6-1-2.5-1-1 0-1.9.4-2.6 1.1-.7.7-1.1 1.7-1.1 2.8 0 1.2.4 2.2 1.1 2.9.7.7 1.6 1.1 2.6 1.1 1-.1 1.8-.4 2.5-1.1z"/></g><g class="st2"><path class="st3" d="M764.5 560.8l-2 2.4c-1-.9-2-1.4-3.2-1.4-1 0-1.5.3-1.5 1 0 .3.1.5.3.7.2.2.6.4 1.2.6l1.4.6c1.4.6 2.4 1.2 3 1.8.6.6 1 1.5 1 2.6 0 1.4-.5 2.5-1.6 3.3s-2.4 1.2-4 1.2c-2.5 0-4.5-.9-5.9-2.8l2-2.4c1.3 1.3 2.6 1.9 4 1.9.5 0 1-.1 1.3-.3.3-.2.5-.5.5-.9 0-.3-.1-.5-.3-.7-.2-.2-.6-.4-1.1-.6l-1.5-.6c-1.3-.5-2.3-1.1-2.9-1.8-.6-.7-1-1.5-1-2.6 0-1.3.5-2.4 1.5-3.2 1-.8 2.2-1.1 3.8-1.1 2 .2 3.7.9 5 2.3zm15.4 0c1.5 1.4 2.3 3.2 2.3 5.3 0 2.1-.8 3.9-2.3 5.3-1.5 1.4-3.3 2.2-5.5 2.2s-3.9-.7-5.4-2.2-2.2-3.2-2.2-5.3c0-2.1.7-3.9 2.2-5.3 1.5-1.4 3.3-2.2 5.4-2.2 2.2.1 4 .8 5.5 2.2zm-8.1 2.6c-.7.7-1 1.7-1 2.8s.3 2.1 1 2.8c.7.7 1.6 1.1 2.7 1.1s1.9-.4 2.6-1.1 1.1-1.7 1.1-2.8-.4-2-1.1-2.8c-.7-.8-1.6-1.1-2.6-1.1-1.1-.1-2 .3-2.7 1.1zm26.4 3.6c0 2-.6 3.6-1.9 4.8-1.2 1.2-2.8 1.8-4.7 1.8-1.9 0-3.5-.6-4.7-1.8-1.2-1.2-1.9-2.8-1.9-4.8v-8h3.9v8.3c0 .8.3 1.5.8 2s1.2.8 1.9.8c.8 0 1.4-.2 1.9-.8.5-.5.8-1.2.8-2V559h3.9v8zm12.5-8v3.4h-1c-1.2 0-2.1.3-2.8.9-.7.6-1 1.6-1 2.8v7.1H802V559h3.6v1.7c1-1.3 2.3-1.9 3.9-1.9.4 0 .9.1 1.2.2zm12.7.6c1.1.6 1.9 1.5 2.5 2.6l-2.7 2.1c-.9-1.4-2.1-2.1-3.4-2.1-1.1 0-2 .4-2.7 1.1-.7.7-1.1 1.7-1.1 2.8 0 1.1.4 2.1 1.1 2.8.7.7 1.6 1.1 2.7 1.1 1.3 0 2.5-.7 3.4-2l2.7 2.1c-.6 1.1-1.5 2-2.5 2.6-1.1.6-2.3 1-3.7 1-2.1 0-3.9-.7-5.4-2.2-1.5-1.4-2.2-3.2-2.2-5.3 0-2.1.7-3.9 2.2-5.3s3.3-2.2 5.4-2.2c1.4 0 2.6.3 3.7.9zm18.2 7.9h-10c.2.9.7 1.6 1.4 2.1s1.6.7 2.6.7c1.4 0 2.7-.5 4-1.4l1.6 2.7c-1.7 1.4-3.6 2.1-5.7 2.1-2.3 0-4.1-.7-5.6-2.2-1.5-1.4-2.2-3.2-2.2-5.3 0-2.1.7-3.9 2.2-5.3 1.4-1.4 3.2-2.2 5.3-2.2 2 0 3.6.6 4.9 1.9 1.3 1.3 1.9 2.8 1.9 4.7-.1.7-.2 1.4-.4 2.2zm-8.7-4.9c-.6.5-1 1.2-1.3 2.1h6.5c0-.9-.3-1.6-.9-2.1s-1.3-.8-2.2-.8c-.8 0-1.5.3-2.1.8z"/></g><g class="st2"><path class="st3" d="M809.2 591.2c.6.8.9 1.8.9 2.9 0 1.7-.6 3-1.7 4-1.2 1-2.7 1.6-4.5 1.6h-8.5v-19.1h6.8c1.8 0 3.2.5 4.3 1.5s1.7 2.3 1.7 3.8c0 1.4-.5 2.5-1.4 3.4 1 .5 1.8 1.1 2.4 1.9zm-10.1-7.2v4.4h2.7c.8 0 1.4-.2 1.8-.6.4-.4.6-.9.6-1.6s-.2-1.2-.6-1.6c-.4-.4-1-.6-1.8-.6h-2.7zm6.5 11.7c.5-.4.7-1 .7-1.8 0-.7-.2-1.3-.7-1.7-.5-.4-1.1-.7-2-.7h-4.4v4.8h4.4c.8.1 1.5-.2 2-.6z"/></g><path class="st1" d="M1343.5 615.8h-74.7c-11 0-20-9-20-20v-74.7c0-11 9-20 20-20h74.7c11 0 20 9 20 20v74.7c0 11-9 20-20 20z"/><g class="st2"><path class="st3" d="M1282.6 526.5c1.5.8 2.6 2 3.5 3.5l-2.9 2.1c-1.3-2.1-3.2-3.2-5.5-3.2-1.8 0-3.3.6-4.4 1.8-1.2 1.2-1.7 2.7-1.7 4.5 0 1.8.6 3.3 1.7 4.5 1.2 1.2 2.6 1.7 4.4 1.7 2.3 0 4.1-1.1 5.5-3.2l2.9 2.1c-.8 1.5-2 2.6-3.5 3.5-1.5.8-3.1 1.3-5 1.3-2.8 0-5.2-.9-7.2-2.8s-2.9-4.2-2.9-7 1-5.1 2.9-7c2-1.9 4.4-2.8 7.2-2.8 1.9-.3 3.5.1 5 1zm10.4 18.1h-3.9V523h3.9v21.6zm16.2-12.4c1.5 1.4 2.3 3.2 2.3 5.3 0 2.1-.8 3.9-2.3 5.3s-3.3 2.2-5.5 2.2c-2.1 0-3.9-.7-5.4-2.2-1.5-1.4-2.2-3.2-2.2-5.3 0-2.1.7-3.9 2.2-5.3 1.5-1.4 3.3-2.2 5.4-2.2 2.1 0 4 .7 5.5 2.2zm-8.1 2.5c-.7.7-1 1.7-1 2.8s.3 2.1 1 2.8c.7.7 1.6 1.1 2.7 1.1s1.9-.4 2.6-1.1c.7-.7 1.1-1.7 1.1-2.8s-.4-2-1.1-2.8c-.7-.8-1.6-1.1-2.6-1.1-1.2 0-2 .3-2.7 1.1zm26.4 3.6c0 2-.6 3.6-1.9 4.8-1.2 1.2-2.8 1.8-4.7 1.8-1.9 0-3.5-.6-4.7-1.8-1.2-1.2-1.9-2.8-1.9-4.8v-8h3.9v8.3c0 .8.3 1.5.8 2s1.2.8 1.9.8c.8 0 1.4-.2 1.9-.8.5-.5.8-1.2.8-2v-8.3h3.9v8zm18-15.3v21.7h-3.6v-1.8c-1 1.4-2.6 2.1-4.6 2.1s-3.7-.7-5-2.1c-1.3-1.4-1.9-3.2-1.9-5.4s.6-3.9 1.9-5.4c1.3-1.4 3-2.1 5-2.1 1.8 0 3.3.6 4.3 1.7V523h3.9zm-4.9 17.4c.7-.7 1.1-1.6 1.1-2.9 0-1.3-.4-2.2-1.1-2.9-.7-.7-1.6-1-2.5-1-1 0-1.9.4-2.6 1.1s-1.1 1.7-1.1 2.8c0 1.2.4 2.2 1.1 2.9.7.7 1.6 1.1 2.6 1.1.9-.1 1.8-.4 2.5-1.1z"/></g><g class="st2"><path class="st3" d="M1273.3 558.6l-2 2.4c-1-.9-2-1.4-3.2-1.4-1 0-1.5.3-1.5 1 0 .3.1.5.3.7.2.2.6.4 1.2.6l1.4.6c1.4.6 2.4 1.2 3 1.8.6.6 1 1.5 1 2.6 0 1.4-.5 2.5-1.6 3.3s-2.4 1.2-4 1.2c-2.5 0-4.5-.9-5.9-2.8l2-2.4c1.3 1.3 2.6 1.9 4 1.9.5 0 1-.1 1.3-.3.3-.2.5-.5.5-.9 0-.3-.1-.5-.3-.7-.2-.2-.6-.4-1.1-.6l-1.5-.6c-1.3-.5-2.3-1.1-2.9-1.8-.6-.7-1-1.5-1-2.6 0-1.3.5-2.4 1.5-3.2 1-.8 2.2-1.1 3.8-1.1 2 .1 3.7.8 5 2.3zm15.4 0c1.5 1.4 2.3 3.2 2.3 5.3 0 2.1-.8 3.9-2.3 5.3s-3.3 2.2-5.5 2.2c-2.1 0-3.9-.7-5.4-2.2-1.5-1.4-2.2-3.2-2.2-5.3 0-2.1.7-3.9 2.2-5.3 1.5-1.4 3.3-2.2 5.4-2.2 2.2 0 4 .7 5.5 2.2zm-8.1 2.5c-.7.7-1 1.7-1 2.8s.3 2.1 1 2.8c.7.7 1.6 1.1 2.7 1.1s1.9-.4 2.6-1.1 1.1-1.7 1.1-2.8-.4-2-1.1-2.8c-.7-.8-1.6-1.1-2.6-1.1-1.1 0-2 .3-2.7 1.1zm26.4 3.6c0 2-.6 3.6-1.9 4.8-1.2 1.2-2.8 1.8-4.7 1.8-1.9 0-3.5-.6-4.7-1.8-1.2-1.2-1.9-2.8-1.9-4.8v-8h3.9v8.3c0 .8.3 1.5.8 2s1.2.8 1.9.8c.8 0 1.4-.2 1.9-.8.5-.5.8-1.2.8-2v-8.3h3.9v8zm12.5-8v3.4h-1c-1.2 0-2.1.3-2.8.9-.7.6-1 1.6-1 2.8v7.1h-3.9v-14.3h3.6v1.7c1-1.3 2.3-1.9 3.9-1.9.5.2.9.2 1.2.3zm12.7.7c1.1.6 1.9 1.5 2.5 2.6l-2.7 2.1c-.9-1.4-2.1-2.1-3.4-2.1-1.1 0-2 .4-2.7 1.1-.7.7-1.1 1.7-1.1 2.8 0 1.1.4 2.1 1.1 2.8s1.6 1.1 2.7 1.1c1.3 0 2.5-.7 3.4-2l2.7 2.1c-.6 1.1-1.5 2-2.5 2.6-1.1.6-2.3 1-3.7 1-2.1 0-3.9-.7-5.4-2.2-1.5-1.4-2.2-3.2-2.2-5.3 0-2.1.7-3.9 2.2-5.3s3.3-2.2 5.4-2.2c1.4-.1 2.7.2 3.7.9zm18.3 7.8h-10c.2.9.7 1.6 1.4 2.1s1.6.7 2.6.7c1.4 0 2.7-.5 4-1.4l1.6 2.7c-1.7 1.4-3.6 2.1-5.7 2.1-2.3 0-4.1-.7-5.6-2.2-1.5-1.4-2.2-3.2-2.2-5.3 0-2.1.7-3.9 2.2-5.3 1.4-1.4 3.2-2.2 5.3-2.2 2 0 3.6.6 4.9 1.9 1.2 1.3 1.9 2.8 1.9 4.7-.2.8-.3 1.5-.4 2.2zm-8.8-4.9c-.6.5-1 1.2-1.3 2.1h6.5c0-.9-.3-1.6-.9-2.1-.6-.5-1.3-.8-2.2-.8-.8.1-1.5.3-2.1.8z"/></g><g class="st2"><path class="st3" d="M1316.8 579.3c1.5.8 2.6 2 3.5 3.5l-2.9 2.1c-1.3-2.1-3.2-3.2-5.5-3.2-1.8 0-3.3.6-4.4 1.8-1.2 1.2-1.7 2.7-1.7 4.5 0 1.8.6 3.3 1.7 4.5 1.2 1.2 2.6 1.7 4.4 1.7 2.3 0 4.1-1.1 5.5-3.2l2.9 2.1c-.8 1.5-2 2.6-3.5 3.5-1.5.8-3.1 1.3-5 1.3-2.8 0-5.2-.9-7.2-2.8s-2.9-4.2-2.9-7 1-5.1 2.9-7c2-1.9 4.4-2.8 7.2-2.8 1.9-.3 3.5.1 5 1z"/></g><g class="st4"><path class="st1" d="M253.9 686.3v93.2h-80.1V672h65.8l14.3 14.3z"/><path class="st5" d="M253.9 686.3h-14.3V672l14.3 14.3z"/><path class="st6" d="M181.7 696.8h37.9v8.7h-37.9v-8.7zm0 23.9h63.1v3.9h-63.1v-3.9zm0 7h63.1v3.9h-63.1v-3.9zm0 6.9h63.1v3.9h-63.1v-3.9zm0 7h63.1v3.9h-63.1v-3.9zm0 7h63.1v3.9h-63.1v-3.9zm0 6.9h63.1v3.9h-63.1v-3.9zm0 7H213v3.9h-31.3v-3.9z"/></g><g class="st4"><path class="st1" d="M386.6 787.2v122.1h-78V773.2h64l14 14z"/><path class="st5" d="M386.7 787.2h-14v-14l14 14z"/><path class="st6" d="M331.4 799.4h46.3v3.8h-46.3v-3.8zm0 18.4h46.3v3.8h-46.3v-3.8zm0 18.3h46.3v3.8h-46.3v-3.8zm0 18.3h46.3v3.8h-46.3v-3.8zm46.3 22.1h-46.3v-3.8h46.3v3.8zm-46.3 14.6h46.3v3.8h-46.3v-3.8zm-12.1-91.7h5.3v3.8h-5.3v-3.8zm0 18.4h5.3v3.8h-5.3v-3.8zm0 18.3h5.3v3.8h-5.3v-3.8zm0 18.3h5.3v3.8h-5.3v-3.8zm5.3 22.1h-5.3v-3.8h5.3v3.8zm-5.3 14.6h5.3v3.8h-5.3v-3.8z"/></g><path class="st1" d="M251.5 824.1v87.5h-75.2v-101H238l13.5 13.5z"/><path class="st5" d="M251.5 824.1H238v-13.5l13.5 13.5z"/><path class="st7" d="M231.4 861.3c.8 2.1 1.3 4.4 1.3 6.9 0 10.2-8.3 18.6-18.6 18.6s-18.6-8.3-18.6-18.6c0-10.2 8.3-18.6 18.6-18.6v-7.8c-14.5 0-26.4 11.8-26.4 26.4 0 14.5 11.8 26.4 26.4 26.4 14.5 0 26.4-11.8 26.4-26.4 0-3.8-.8-7.3-2.2-10.6l-6.9 3.7z"/><path class="st3" d="M213.8 849.6h.3c7.9 0 14.7 5 17.3 12l6.9-3.7c-4-9.4-13.3-16-24.2-16h-.3v7.7z"/><path class="st1" d="M293.3 675.8H402v74.9H293.3v-74.9z"/><path class="st7" d="M302 683.5h91.3V743H302v-59.5z"/><path class="st3" d="M381.8 743.8h-38l19.5-49.1 18.5 49.1z"/><path class="st3" d="M354.1 743.8h-26.2l13.5-33.9 12.7 33.9z"/><path class="st1" d="M295.5 932.7h104.3v71.8H295.5v-71.8z"/><path class="st7" d="M303.9 940h87.6v34.3h-87.6V940z"/><path class="st3" d="M380.4 971.2H344l18.7-25.1 17.7 25.1z"/><path class="st3" d="M353.8 971.2h-25.1l12.9-17.3 12.2 17.3z"/><path class="st6" d="M303.9 979.1h86.9v2.9h-86.9v-2.9zm0 5h86.9v2.9h-86.9v-2.9zm0 5.1h86.9v2.9h-86.9v-2.9zm0 5.7h41.5v2.9h-41.5v-2.9z"/><path class="st1" d="M167.8 943.5h92.1v62.3h-92.1v-62.3z"/><circle class="st7" cx="202.8" cy="974.7" r="18.2"/><circle class="st8" cx="224.9" cy="974.7" r="18.2"/><g class="st4"><path class="st1" d="M827.5 906.7h82.4v103.9h-82.4V906.7z"/><path class="st7" d="M827.5 906.7h82.4v14.9h-82.4v-14.9z"/><path class="st6" d="M844 934.6h29.2v2.9H844v-2.9zm-7.7 0h3.4v2.9h-3.4v-2.9zm7.7 12.5h29.2v2.9H844v-2.9zm-7.7 0h3.4v2.9h-3.4v-2.9zm7.7 12.6h29.2v2.9H844v-2.9zm-7.7 0h3.4v2.9h-3.4v-2.9zm7.7 12.6h29.2v2.9H844v-2.9zm-7.7 0h3.4v2.9h-3.4v-2.9zm36.9 15.5H844v-2.9h29.2v2.9zm-33.5 0h-3.4v-2.9h3.4v2.9zm4.3 9.7h29.2v2.9H844v-2.9zm-7.7 0h3.4v2.9h-3.4v-2.9zm43.9-63.3h21.6v67.8h-21.6v-67.8z"/></g><g class="st4"><path class="st1" d="M773.8 797.6v89.6h-77.1V783.7H760l13.8 13.9z"/><path class="st5" d="M773.8 797.6H760v-13.9l13.8 13.9z"/><path class="st7" d="M753.2 835.7c.9 2.2 1.4 4.5 1.4 7 0 10.5-8.5 19-19 19s-19-8.5-19-19 8.5-19 19-19v-8c-14.9 0-27 12.1-27 27s12.1 27 27 27 27-12.1 27-27c0-3.9-.8-7.5-2.3-10.8l-7.1 3.8z"/><path class="st3" d="M735.2 823.7h.3c8.1 0 15 5.1 17.7 12.3l7.1-3.8c-4.1-9.7-13.7-16.4-24.8-16.4h-.3v7.9z"/></g><path class="st1" d="M909.2 678v94.3h-81.1V663.5h66.5l14.6 14.5z"/><path class="st5" d="M909.2 678h-14.6v-14.5l14.6 14.5z"/><path class="st9" d="M837.8 694.6h63.1v50h-63.1v-50z"/><path class="st3" d="M837.8 745.1l18-15.3 5.4 5.6 13.1-18.5 8.1 2.4 18.5-13.7v38.7l-63.1.8z"/><path class="st10" d="M837.8 745.1l18-10.1 5.4 3.7 13.1-12.2 8.1 1.6 18.5-9.1v25.5l-63.1.6z"/><path class="st7" d="M837.8 745.1l18-6.3 5.4 2.3 13.1-7.6 8.1 1 18.5-5.6v15.8l-63.1.4z"/><path class="st1" d="M813.9 802.9h109.4V877H813.9v-74.1z"/><circle class="st3" cx="855.5" cy="840" r="21.7"/><circle class="st11" cx="881.7" cy="840" r="21.7"/><path class="st1" d="M680.8 673.1h109v73.8h-109v-73.8z"/><path class="st7" d="M691 734l-2.3-3 21-16 8.9 10.9 25.3-26.9 14.2 15 21.9-22.3 2.6 2.6-24.6 25.1-14.1-14.9-25.5 27.1-9.3-11.5L691 734z"/><circle class="st3" cx="690.2" cy="731.4" r="5"/><circle class="st3" cx="709.5" cy="718" r="5"/><circle class="st3" cx="718.4" cy="728.5" r="5"/><circle class="st3" cx="743.8" cy="702.1" r="5"/><circle class="st3" cx="758" cy="716.5" r="5"/><circle class="st3" cx="779.6" cy="694" r="5"/><path class="st1" d="M686 927.6h98.6v74.9H686v-74.9z"/><path class="st3" d="M760.4 958.6l-6.8 1.8-18.7 5 5-18.7 1.8-6.8c-8.6-2.2-18.1.1-24.8 6.8-10.1 10.1-10.1 26.6 0 36.7s26.6 10.1 36.7 0c6.8-6.7 9-16.2 6.8-24.8z"/><path class="st7" d="M753.8 946.8c-3.4-3.4-7.5-5.7-11.9-6.8l-1.8 6.8-5 18.7 18.7-5 6.8-1.8c-1.1-4.3-3.4-8.5-6.8-11.9z"/><g class="st4"><path class="st1" d="M1279.9 688.8v94.8h-81.6V674.1h66.9l14.7 14.7z"/><path class="st5" d="M1279.9 688.8h-14.7v-14.7l14.7 14.7z"/><path class="st6" d="M1206.3 699.4h38.6v8.9h-38.6v-8.9zm0 24.4h64.3v4h-64.3v-4zm0 7.1h64.3v4h-64.3v-4zm0 7h64.3v4h-64.3v-4zm0 7.1h64.3v4h-64.3v-4zm64.3 11.1h-64.3v-4h64.3v4zm-64.3 3.1h64.3v4h-64.3v-4zm0 7.1h31.9v4h-31.9v-4z"/></g><path class="st1" d="M1329.3 908.3h77.8v98.2h-77.8v-98.2z"/><path class="st7" d="M1329.3 908.3h77.8v14.1h-77.8v-14.1z"/><path class="st6" d="M1345 934.6h27.6v2.8H1345v-2.8zm-7.3 0h3.2v2.8h-3.2v-2.8zm7.3 11.9h27.6v2.8H1345v-2.8zm-7.3 0h3.2v2.8h-3.2v-2.8zm7.3 11.9h27.6v2.8H1345v-2.8zm-7.3 0h3.2v2.8h-3.2v-2.8zm7.3 11.9h27.6v2.8H1345v-2.8zm-7.3 0h3.2v2.8h-3.2v-2.8zm34.9 14.6H1345v-2.7h27.6v2.7zm-31.7 0h-3.2v-2.7h3.2v2.7zm4.1 9.2h27.6v2.8H1345v-2.8zm-7.3 0h3.2v2.8h-3.2v-2.8zm41.4-59.8h20.4v64.1h-20.4v-64.1z"/><path class="st1" d="M1276.7 835.3v87.4h-75.2V821.8h61.7l13.5 13.5z"/><path class="st5" d="M1276.7 835.3h-13.5v-13.5l13.5 13.5z"/><path class="st3" d="M1210.2 840.8h17.2v16.9h-17.2v-16.9z"/><path class="st9" d="M1233.1 841.7h31.8v5.2h-31.8v-5.2zm0 9.8h31.8v5.2h-31.8v-5.2z"/><path class="st3" d="M1210.2 866h17.2v16.9h-17.2V866z"/><path class="st9" d="M1233.1 866.9h31.8v5.2h-31.8v-5.2zm0 9.8h31.8v5.2h-31.8v-5.2z"/><path class="st3" d="M1210.2 891.2h17.2v16.9h-17.2v-16.9z"/><path class="st9" d="M1233.1 892.1h31.8v5.2h-31.8v-5.2zm0 9.8h31.8v5.2h-31.8v-5.2z"/><path class="st1" d="M1191.3 949.4h95.6v65.8h-95.6v-65.8z"/><path class="st3" d="M1198.9 956.2h80.3v31.5h-80.3v-31.5z"/><path class="st7" d="M1269.1 987.7h-33.4l17.2-23 16.2 23z"/><path class="st7" d="M1244.7 987.7h-23l11.9-15.9 11.1 15.9z"/><path class="st6" d="M1199 991.9h79.6v2.6H1199v-2.6zm0 4.7h79.6v2.6H1199v-2.6zm0 4.7h79.6v2.6H1199v-2.6zm0 5.2h38v2.6h-38v-2.6z"/><path class="st1" d="M1310.1 686.7h116.2v80h-116.2v-80z"/><path class="st3" d="M1319.5 695h97.6v63.6h-97.6V695z"/><path class="st7" d="M1404.7 759.4h-40.6l20.9-52.5 19.7 52.5z"/><path class="st7" d="M1375.1 759.4h-28l14.4-36.2 13.6 36.2z"/><g class="st4"><path class="st1" d="M1320.6 803.4h95.3v72.4h-95.3v-72.4z"/><path class="st7" d="M1392.6 833.4l-6.6 1.8-18.1 4.9 4.9-18.1 1.8-6.6c-8.3-2.1-17.5.1-24 6.6-9.8 9.8-9.8 25.7 0 35.5s25.7 9.8 35.5 0c6.4-6.6 8.6-15.8 6.5-24.1z"/><path class="st3" d="M1386 821.9c-3.3-3.3-7.3-5.5-11.5-6.6l-1.8 6.6-4.9 18.1 18.1-4.9 6.6-1.8c-1-4.1-3.2-8.1-6.5-11.4z"/></g><path class="st12" d="M814.1 323.7V433h166.2v521.4h-70.6"/><path class="st12" d="M839.1 323.7v79.7h266.4v321h100.8"/><path class="st12" d="M861.9 323.7v47.8h632.9v466.7h-77.4M786.8 323.7V433H620.6v400.7h72.8"/><path class="st12" d="M759.4 323.7v72.9H449.8v443.9h-54.6"/><path class="st12" d="M732.1 323.7v47.8H99.2v346.1h68.3"/><circle class="st7" cx="174.3" cy="719.9" r="26.2"/><circle class="st7" cx="381.5" cy="840.5" r="26.2"/><circle class="st7" cx="697.5" cy="833.8" r="26.2"/><circle class="st7" cx="907.5" cy="955" r="26.2"/><circle class="st7" cx="1197.8" cy="726.2" r="26.2"/><circle class="st7" cx="1411.2" cy="838.9" r="26.2"/><path class="st13" d="M885.1 291.9H708.9c-11 0-20-9-20-20V95.6c0-11 9-20 20-20h176.3c11 0 20 9 20 20v176.3c-.1 11-9.1 20-20.1 20z"/><path class="st1" d="M727.4 203.6c-2.7 0-4.8-2.1-4.8-4.8 0-34.3 27.9-62.2 62.2-62.2 2.7 0 4.8 2.1 4.8 4.8s-2.1 4.8-4.8 4.8c-29 0-52.6 23.6-52.6 52.6 0 2.6-2.2 4.8-4.8 4.8zm41 2.2c0-4 .8-7.7 2.4-11.3 1.5-3.5 3.7-6.4 6.4-9s5.9-4.6 9.5-6.1 7.5-2.2 11.7-2.2c5.5 0 10.3 1.3 14.3 3.9 4 2.6 7 6.3 8.9 11l-11 6.5c-1.3-2.9-3-5.1-5.1-6.6-2.1-1.6-4.8-2.4-8-2.4-2.1 0-4.2.4-6.1 1.2-1.9.8-3.5 1.8-4.9 3.2-1.3 1.3-2.4 2.9-3.1 4.9-.8 1.9-1.2 4-1.2 6.2 0 2 .3 3.9.9 5.5.6 1.7 1.5 3.1 2.7 4.2 1.2 1.2 2.6 2 4.2 2.6 1.7.6 3.5.9 5.4.9 3 0 5.6-.7 7.8-2s4.2-3.2 6.1-5.8l9.5 7.5c-2.8 4.1-6.3 7.3-10.5 9.5s-8.9 3.3-14 3.3c-3.8 0-7.3-.6-10.5-1.9-3.2-1.3-6-3-8.2-5.2-2.3-2.2-4.1-4.9-5.3-8-1.3-3-1.9-6.4-1.9-9.9zm83.3 24.5l4.8-27.6h8l1.9-11.1h-8l.8-4.4c.3-1.6.8-2.8 1.7-3.6s2.4-1.2 4.2-1.2c.6 0 1.3.1 1.9.1.2 0 .5.1 1.1.1.6.1 1 .1 1.4.2l1.8-10.9c-2.6-1-5.4-1.6-8.4-1.6-4.6 0-8.3 1.2-11.2 3.6-2.9 2.3-4.8 5.9-5.6 10.8l-1.2 7h-5.5l-1.9 11.1h5.5l-4.8 27.6 13.5-.1z"/></svg>