<svg id="Layer_4" xmlns="http://www.w3.org/2000/svg" xmlns:xlink="http://www.w3.org/1999/xlink" viewBox="0 0 1920 1080"><style>.st0{clip-path:url(#SVGID_2_)}.st1{fill:#3079d8}.st2{fill:none}.st3{fill:#fff}.st4{fill:#7f7f7f}.st5{fill:#c4c4c4}.st6{opacity:.36}.st7{opacity:.3}.st8{fill:#6be7e0}.st9{fill:#013f95}.st10{fill:#eaeaea}.st11{opacity:.5;fill:#013f95}.st12{opacity:.34;fill:#6be7e0}.st13{fill:#ffd65a}</style><defs><path id="SVGID_1_" d="M.7 2.8h1919.2v1077.1H.7z"/></defs><clipPath id="SVGID_2_"><use xlink:href="#SVGID_1_" overflow="visible"/></clipPath><g class="st0"><path class="st1" d="M0 0h1920v1080H0z"/><path class="st3" d="M428 78.2v121.9H323.2V59.4h86z"/><path class="st4" d="M428 78.2h-18.8V59.4z"/><path class="st5" d="M333.5 91.9h49.6v11.4h-49.6zm0 31.3h82.6v5.1h-82.6zm0 9.1h82.6v5.1h-82.6zm0 9.1h82.6v5.1h-82.6zm0 9.2h82.6v5.1h-82.6zm0 9.1h82.6v5.1h-82.6zm0 9.1h82.6v5.1h-82.6zm0 9.1h41v5.1h-41z"/><g class="st6"><path class="st3" d="M1586.4 544.3v153.2h-131.7V520.7h108.1z"/><path class="st4" d="M1586.4 544.3h-23.6v-23.6z"/><path class="st5" d="M1467.6 561.5h62.3v14.3h-62.3zm0 39.4h103.8v6.4h-103.8zm0 11.4h103.8v6.4h-103.8zm0 11.5h103.8v6.4h-103.8zm0 11.4h103.8v6.4h-103.8zm0 11.5h103.8v6.4h-103.8zm0 11.4h103.8v6.4h-103.8zm0 11.5h51.5v6.4h-51.5z"/></g><path class="st3" d="M174.7 276.6v153.2H43V253h108z"/><path class="st4" d="M174.7 276.6H151V253z"/><path class="st5" d="M55.8 293.8h62.3v14.3H55.8zm0 39.3h103.8v6.4H55.8zm0 11.5h103.8v6.4H55.8zm0 11.4h103.8v6.4H55.8zm0 11.5h103.8v6.4H55.8zm0 11.4h103.8v6.4H55.8zm0 11.5h103.8v6.4H55.8zm0 11.4h51.5v6.4H55.8z"/><g class="st7"><path class="st3" d="M1455.1 75.7v179.1h-154V48.1h126.4z"/><path class="st4" d="M1455.1 75.7h-27.6V48.1z"/><path class="st5" d="M1316.2 95.8h72.8v16.7h-72.8zm0 46h121.3v7.5h-121.3zm0 13.4h121.3v7.5h-121.3zm0 13.4h121.3v7.5h-121.3zm0 13.4h121.3v7.5h-121.3zm121.3 20.9h-121.3v-7.5h121.3zm-121.3 5.9h121.3v7.5h-121.3zm0 13.4h60.3v7.5h-60.3z"/></g><path class="st3" d="M1711.9 514.5h153v193h-153z"/><path class="st8" d="M1711.9 514.5h153v27.7h-153z"/><path class="st5" d="M1742.7 566.3h54.2v5.4h-54.2zm-14.3 0h6.2v5.4h-6.2zm14.3 23.3h54.2v5.4h-54.2zm-14.3 0h6.2v5.4h-6.2zm14.3 23.4h54.2v5.4h-54.2zm-14.3 0h6.2v5.4h-6.2zm14.3 23.4h54.2v5.4h-54.2zm-14.3 0h6.2v5.4h-6.2zm68.5 28.8h-54.2v-5.4h54.2zm-62.3 0h-6.2v-5.4h6.2zm8.1 17.9h54.2v5.4h-54.2zm-14.3 0h6.2v5.4h-6.2zm81.4-117.6h40.1v126h-40.1z"/><path class="st3" d="M1564 985.8h153v193h-153z"/><path class="st8" d="M1564 985.8h153v27.7h-153z"/><path class="st5" d="M1594.8 1037.6h54.2v5.4h-54.2zm-14.3 0h6.2v5.4h-6.2zm14.3 23.3h54.2v5.4h-54.2zm-14.3 0h6.2v5.4h-6.2zm14.3 23.4h54.2v5.4h-54.2zm-14.3 0h6.2v5.4h-6.2zm14.3 23.4h54.2v5.4h-54.2zm-14.3 0h6.2v5.4h-6.2zm68.5 28.8h-54.2v-5.5h54.2zm-62.3 0h-6.2v-5.5h6.2zm8.1 17.9h54.2v5.4h-54.2zm-14.3 0h6.2v5.4h-6.2zm81.4-117.6h40.1v126h-40.1z"/><path class="st3" d="M109.2 6.3h143.1v180.5H109.2z"/><path class="st8" d="M109.2 6.3h143.1v25.9H109.2z"/><path class="st5" d="M138 54.7h50.7v5.1H138zm-13.3 0h5.8v5.1h-5.8zM138 76.5h50.7v5.1H138zm-13.3 0h5.8v5.1h-5.8zM138 98.4h50.7v5.1H138zm-13.3 0h5.8v5.1h-5.8zm13.3 21.9h50.7v5.1H138zm-13.3 0h5.8v5.1h-5.8zm64 26.9H138v-5.1h50.7zm-58.2 0h-5.8v-5.1h5.8zM138 164h50.7v5.1H138zm-13.3 0h5.8v5.1h-5.8zm76.1-110h37.5v117.8h-37.5z"/><g class="st7"><path class="st3" d="M795.6 677.3v174.4H684.2V657.4h91.4z"/><path class="st4" d="M795.6 677.3h-19.9v-19.9z"/><path class="st5" d="M716.8 694.8h66.1v5.4h-66.1zm0 26.1h66.1v5.4h-66.1zm0 26.2h66.1v5.4h-66.1zm0 26.2h66.1v5.4h-66.1zm66 31.6h-66v-5.4h66zm-66 20.7h66.1v5.4h-66.1zm-17.4-130.8h7.6v5.4h-7.6zm0 26.1h7.6v5.4h-7.6zm0 26.2h7.6v5.4h-7.6zm0 26.2h7.6v5.4h-7.6zm7.6 31.6h-7.6v-5.4h7.6zm-7.6 20.7h7.6v5.4h-7.6z"/></g><path class="st3" d="M1170.6-114.7V59.6h-111.4v-194.3h91.4z"/><path class="st4" d="M1170.7-114.7h-20v-20z"/><path class="st5" d="M1091.8-97.3h66.1v5.4h-66.1zm0 26.2h66.1v5.4h-66.1zm0 26.1h66.1v5.4h-66.1zm0 26.2h66.1v5.4h-66.1zm66.1 31.6h-66.1V7.4h66.1zm-66.1 20.7h66.1v5.4h-66.1zm-17.4-130.8h7.6v5.4h-7.6zm0 26.2h7.6v5.4h-7.6zm0 26.1h7.6v5.4h-7.6zm0 26.2h7.6v5.4h-7.6zm7.6 31.6h-7.6V7.4h7.6zm-7.6 20.7h7.6v5.4h-7.6z"/><path class="st3" d="M362.6 923.3v174.3H251.2V903.3h91.4z"/><path class="st4" d="M362.7 923.3h-20v-20z"/><path class="st5" d="M283.8 940.7h66.1v5.4h-66.1zm0 26.2h66.1v5.4h-66.1zm0 26.1h66.1v5.4h-66.1zm0 26.2h66.1v5.4h-66.1zm66.1 31.6h-66.1v-5.4h66.1zm-66.1 20.7h66.1v5.4h-66.1zm-17.4-130.8h7.6v5.4h-7.6zm0 26.2h7.6v5.4h-7.6zm0 26.1h7.6v5.4h-7.6zm0 26.2h7.6v5.4h-7.6zm7.6 31.6h-7.6v-5.4h7.6zm-7.6 20.7h7.6v5.4h-7.6z"/><path class="st3" d="M1358 682.6v179.1h-154V655h126.4z"/><path class="st4" d="M1358 682.6h-27.6V655z"/><path class="st8" d="M1316.8 758.9c1.7 4.3 2.7 9.1 2.7 14 0 21-17 38-38 38s-38-17-38-38 17-38 38-38v-16c-29.8 0-54 24.2-54 54s24.2 54 54 54 54-24.2 54-54c0-7.7-1.6-15-4.6-21.7l-14.1 7.7z"/><path class="st9" d="M1280.9 734.8h.6c16.2 0 30 10.2 35.4 24.5l14.1-7.6c-8.2-19.3-27.3-32.8-49.5-32.8h-.6v15.9z"/><path class="st3" d="M1642.3 104.3v128.8h-110.8V84.4h90.9z"/><path class="st4" d="M1642.3 104.3h-19.9V84.4z"/><path class="st8" d="M1612.6 159.2c1.2 3.1 1.9 6.5 1.9 10.1 0 15.1-12.3 27.3-27.3 27.3s-27.3-12.3-27.3-27.3c0-15.1 12.3-27.3 27.3-27.3v-11.5c-21.4 0-38.8 17.4-38.8 38.8s17.4 38.8 38.8 38.8 38.8-17.4 38.8-38.8c0-5.5-1.2-10.8-3.3-15.6l-10.1 5.5z"/><path class="st9" d="M1586.8 141.9h.5c11.6 0 21.6 7.3 25.5 17.6l10.2-5.5c-5.9-13.9-19.7-23.6-35.6-23.6h-.5v11.5z"/><path class="st3" d="M405.4 302.9v137.2H287.5V281.8h96.7z"/><path class="st4" d="M405.4 302.9h-21.2v-21.1z"/><path class="st8" d="M373.8 361.3c1.3 3.3 2.1 7 2.1 10.8 0 16-13.1 29.1-29.1 29.1s-29.1-13.1-29.1-29.1 13.1-29.1 29.1-29.1v-12.3c-22.8 0-41.4 18.5-41.4 41.4 0 22.8 18.6 41.4 41.4 41.4 22.8 0 41.4-18.5 41.4-41.4 0-5.9-1.3-11.5-3.5-16.6l-10.9 5.8z"/><path class="st9" d="M346.3 342.9h.5c12.4 0 23 7.8 27.1 18.8l10.8-5.8c-6.3-14.8-20.9-25.1-37.9-25.1h-.5v12.1z"/><path class="st3" d="M114 808.1v124.5H6.9V788.8h87.9z"/><path class="st4" d="M114 808.1H94.8v-19.3z"/><path class="st9" d="M85.4 861.1c1.2 3 1.9 6.3 1.9 9.8 0 14.6-11.9 26.4-26.4 26.4s-26.4-11.9-26.4-26.4 11.9-26.4 26.4-26.4v-11.1c-20.7 0-37.6 16.9-37.6 37.6 0 20.7 16.9 37.6 37.6 37.6s37.6-16.9 37.6-37.6c0-5.4-1.1-10.5-3.2-15.1l-9.9 5.2z"/><path class="st8" d="M60.4 844.4h.5c11.3 0 20.9 7.1 24.6 17l9.8-5.3c-5.7-13.4-19-22.8-34.5-22.8h-.5v11.1z"/><path class="st3" d="M906 1010.1v124.5H798.9V990.8h87.9z"/><path class="st4" d="M906 1010.1h-19.2v-19.3z"/><path class="st9" d="M877.4 1063.1c1.2 3 1.9 6.3 1.9 9.8 0 14.6-11.9 26.4-26.4 26.4s-26.4-11.9-26.4-26.4c0-14.6 11.9-26.4 26.4-26.4v-11.1c-20.7 0-37.6 16.9-37.6 37.6s16.9 37.6 37.6 37.6 37.6-16.9 37.6-37.6c0-5.4-1.1-10.5-3.2-15.1l-9.9 5.2z"/><path class="st8" d="M852.4 1046.4h.5c11.3 0 20.9 7.1 24.6 17l9.8-5.3c-5.7-13.4-19-22.8-34.5-22.8h-.5v11.1z"/><path class="st3" d="M880 476.1v124.5H772.9V456.8h87.9z"/><path class="st4" d="M880 476.1h-19.2v-19.3z"/><path class="st9" d="M851.4 529.1c1.2 3 1.9 6.3 1.9 9.8 0 14.6-11.9 26.4-26.4 26.4s-26.4-11.9-26.4-26.4 11.9-26.4 26.4-26.4v-11.1c-20.7 0-37.6 16.9-37.6 37.6 0 20.7 16.9 37.6 37.6 37.6s37.6-16.9 37.6-37.6c0-5.4-1.1-10.5-3.2-15.1l-9.9 5.2z"/><path class="st8" d="M826.4 512.4h.5c11.3 0 20.9 7.1 24.6 17l9.8-5.3c-5.7-13.4-19-22.8-34.5-22.8h-.5v11.1z"/><path class="st3" d="M1368.6 423.3v115.3h-99.2V405.5h81.4z"/><path class="st4" d="M1368.6 423.3h-17.8v-17.8z"/><path class="st10" d="M1281.2 443.5h77.3v61.2h-77.3z"/><path class="st9" d="M1281.2 505.3l22-18.7 6.7 6.9 16-22.7 10 3 22.6-16.8v47.3z"/><path class="st1" d="M1281.2 505.3l22-12.3 6.7 4.5 16-14.9 10 1.9 22.6-11v31.2z"/><path class="st8" d="M1281.2 505.3l22-7.6 6.7 2.8 16-9.3 10 1.2 22.6-6.8v19.3z"/><g class="st7"><path class="st3" d="M639.1 175v164h-141V149.7h115.7z"/><path class="st4" d="M639.1 175h-25.3v-25.3z"/><path class="st10" d="M514.9 203.7h109.9v87H514.9z"/><path class="st9" d="M514.9 291.6l31.3-26.6 9.5 9.8 22.7-32.2 14.2 4.2 32.2-23.8v67.2z"/><path class="st1" d="M514.9 291.6l31.3-17.5 9.5 6.4 22.7-21.2 14.2 2.8 32.2-15.7v44.3z"/><path class="st8" d="M514.9 291.6l31.3-10.9 9.5 4.1 22.7-13.2 14.2 1.7 32.2-9.8v27.6z"/></g><path class="st3" d="M1889.3 797.8v164h-141V772.5H1864z"/><path class="st4" d="M1889.3 797.8H1864v-25.3z"/><path class="st9" d="M1764.6 808.1h32.3v31.7h-32.3z"/><path class="st10" d="M1807.6 809.9h59.7v9.8h-59.7zm0 18.4h59.7v9.8h-59.7z"/><path class="st9" d="M1764.6 855.4h32.3v31.7h-32.3z"/><path class="st10" d="M1807.6 857.2h59.7v9.8h-59.7zm0 18.3h59.7v9.8h-59.7z"/><path class="st9" d="M1764.6 902.6h32.3v31.7h-32.3z"/><path class="st10" d="M1807.6 904.4h59.7v9.8h-59.7zm0 18.4h59.7v9.8h-59.7z"/><path class="st3" d="M1129.3 1009.8v164h-141V984.5H1104z"/><path class="st4" d="M1129.3 1009.8H1104v-25.3z"/><path class="st9" d="M1004.6 1020.1h32.3v31.7h-32.3z"/><path class="st10" d="M1047.6 1021.9h59.7v9.8h-59.7zm0 18.4h59.7v9.8h-59.7z"/><path class="st9" d="M1004.6 1067.4h32.3v31.7h-32.3z"/><path class="st10" d="M1047.6 1069.2h59.7v9.8h-59.7zm0 18.3h59.7v9.8h-59.7z"/><path class="st9" d="M1004.6 1114.6h32.3v31.7h-32.3z"/><path class="st10" d="M1047.6 1116.4h59.7v9.8h-59.7zm0 18.4h59.7v9.8h-59.7z"/><path class="st3" d="M124.4 533.4v164h-141V508.1H99.1z"/><path class="st4" d="M124.4 533.4H99.1v-25.3z"/><path class="st9" d="M-.3 543.7H32v31.7H-.3z"/><path class="st10" d="M42.7 545.6h59.7v9.8H42.7zm0 18.3h59.7v9.8H42.7z"/><path class="st9" d="M-.3 591H32v31.7H-.3z"/><path class="st10" d="M42.7 592.8h59.7v9.8H42.7zm0 18.4h59.7v9.8H42.7z"/><path class="st9" d="M-.3 638.2H32v31.7H-.3z"/><path class="st10" d="M42.7 640.1h59.7v9.8H42.7zm0 18.3h59.7v9.8H42.7z"/><path class="st3" d="M603 687.6v179.1H449V660h126.4z"/><path class="st4" d="M603 687.6h-27.6V660z"/><path class="st5" d="M464.1 707.7h72.8v16.7h-72.8zm0 46h121.3v7.5H464.1zm0 13.4h121.3v7.5H464.1zm0 13.4h121.3v7.5H464.1zm0 13.4h121.3v7.5H464.1zm0 13.3h121.3v7.5H464.1zm0 13.4h121.3v7.5H464.1zm0 13.4h60.3v7.5h-60.3z"/><path class="st3" d="M752 59.8h208v143.3H752z"/><path class="st8" d="M768.7 74.5h174.7v113.8H768.7z"/><path class="st9" d="M921.3 189.8h-72.6l37.4-94z"/><path class="st9" d="M868.3 189.8h-50L844 125z"/><g class="st7"><path class="st3" d="M191.7 727.5h136.5v94H191.7z"/><path class="st8" d="M202.7 737.2h114.6v44.9H202.7z"/><path class="st9" d="M302.8 777.9h-47.6l24.5-32.8z"/><path class="st9" d="M268 777.9h-32.8l16.9-22.6z"/><path class="st5" d="M202.7 788.2h113.7v3.7H202.7zm0 6.7h113.7v3.7H202.7zm0 6.6h113.7v3.7H202.7zm0 7.5H257v3.7h-54.3z"/></g><path class="st3" d="M1516.6-81.1h163.3V31.4h-163.3z"/><path class="st8" d="M1529.7-69.5h137.1v53.7h-137.1z"/><path class="st9" d="M1649.5-20.8h-57l29.3-39.3z"/><path class="st9" d="M1607.9-20.8h-39.3l20.2-27.1z"/><path class="st5" d="M1529.7-8.4h136v4.5h-136zm0 7.9h136V4h-136zm0 8h136V12h-136zm0 8.9h65v4.5h-65z"/><path class="st3" d="M1497.3 780.7h177v121.9h-177z"/><path class="st9" d="M1511.4 793.2H1660v58.2h-148.6z"/><path class="st8" d="M1641.2 851.5h-61.7l31.8-42.6z"/><path class="st8" d="M1596.2 851.5h-42.6l21.9-29.3z"/><path class="st5" d="M1511.5 859.4h147.4v4.9h-147.4zm0 8.6h147.4v4.9h-147.4zm0 8.7h147.4v4.9h-147.4zm0 9.6h70.4v4.9h-70.4z"/><g class="st7"><path class="st3" d="M733.3 272.7h177v121.9h-177z"/><path class="st9" d="M747.4 285.2H896v58.2H747.4z"/><path class="st8" d="M877.2 343.5h-61.7l31.8-42.6z"/><path class="st8" d="M832.2 343.5h-42.6l21.9-29.3z"/><path class="st5" d="M747.5 351.4h147.4v4.9H747.5zm0 8.6h147.4v4.9H747.5zm0 8.7h147.4v4.9H747.5zm0 9.6h70.4v4.9h-70.4z"/></g><path class="st3" d="M489.3 1006.7h177v121.9h-177z"/><path class="st9" d="M503.4 1019.2H652v58.2H503.4z"/><path class="st8" d="M633.2 1077.5h-61.7l31.8-42.6z"/><path class="st8" d="M588.2 1077.5h-42.6l21.9-29.3z"/><path class="st5" d="M503.5 1085.4h147.4v4.9H503.5zm0 8.6h147.4v4.9H503.5zm0 8.7h147.4v4.9H503.5zm0 9.6h70.4v4.9h-70.4z"/><path class="st3" d="M1469.1 340h162.8v112.1h-162.8z"/><path class="st9" d="M1482.2 351.5h136.7v89.1h-136.7z"/><path class="st8" d="M1601.6 441.7h-56.9l29.3-73.5z"/><path class="st8" d="M1560.1 441.7h-39.2l20.2-50.7z"/><path class="st3" d="M1046.1 119.2h174.8v118.3h-174.8z"/><circle class="st9" cx="1112.5" cy="178.4" r="34.6"/><circle class="st11" cx="1154.4" cy="178.4" r="34.6"/><path class="st3" d="M470.5 447.6h174.8v118.3H470.5z"/><circle class="st8" cx="536.9" cy="506.8" r="34.6"/><circle class="st12" cx="578.8" cy="506.8" r="34.6"/><path class="st3" d="M1030.5 313.6h174.8v118.3h-174.8z"/><circle class="st8" cx="1096.9" cy="372.8" r="34.6"/><circle class="st12" cx="1138.8" cy="372.8" r="34.6"/><path class="st3" d="M213.4 537.4h144.2V635H213.4z"/><path class="st8" d="M226.9 618l-3-3.9 27.7-21.3 11.9 14.5 33.4-35.6 18.7 19.9 29-29.5 3.6 3.4-32.6 33.2-18.7-19.7-33.7 35.9-12.4-15.2z"/><circle class="st9" cx="225.8" cy="614.6" r="6.6"/><circle class="st9" cx="251.4" cy="596.9" r="6.6"/><circle class="st9" cx="263.1" cy="610.7" r="6.6"/><circle class="st9" cx="296.8" cy="575.8" r="6.6"/><circle class="st9" cx="315.5" cy="594.8" r="6.6"/><circle class="st9" cx="344.2" cy="565.1" r="6.6"/><path class="st3" d="M1726.3 313.1h184.3v124.8h-184.3z"/><path class="st8" d="M1743.6 416.2l-3.8-5 35.4-27.2 15.2 18.6 42.7-45.6 23.9 25.4 37.1-37.7 4.5 4.4-41.7 42.4-23.8-25.2-43.1 45.9-15.8-19.5z"/><circle class="st9" cx="1742.2" cy="411.8" r="8.5"/><circle class="st9" cx="1774.9" cy="389.2" r="8.5"/><circle class="st9" cx="1789.9" cy="406.8" r="8.5"/><circle class="st9" cx="1832.9" cy="362.3" r="8.5"/><circle class="st9" cx="1856.9" cy="386.5" r="8.5"/><circle class="st9" cx="1893.6" cy="348.6" r="8.5"/><g class="st7"><path class="st3" d="M945.9 519.6h184.3v124.8H945.9z"/><path class="st8" d="M963.2 622.7l-3.8-5.1 35.5-27.1L1010 609l42.7-45.5 24 25.4 37-37.8 4.6 4.5-41.7 42.4-23.9-25.3-43 45.9-15.9-19.4z"/><circle class="st9" cx="961.8" cy="618.3" r="8.5"/><circle class="st9" cx="994.5" cy="595.6" r="8.5"/><circle class="st9" cx="1009.6" cy="613.3" r="8.5"/><circle class="st9" cx="1052.5" cy="568.7" r="8.5"/><circle class="st9" cx="1076.5" cy="593" r="8.5"/><circle class="st9" cx="1113.2" cy="555" r="8.5"/></g><path class="st3" d="M478.2-76.9h184.3V47.9H478.2z"/><path class="st8" d="M495.5 26.2l-3.9-5.1L527.1-6l15.1 18.5L584.9-33l24 25.4L646-45.4l4.5 4.5-41.7 42.4L585-23.8l-43.1 45.9-15.8-19.4z"/><circle class="st9" cx="494.1" cy="21.8" r="8.5"/><circle class="st9" cx="526.8" cy="-.9" r="8.5"/><circle class="st9" cx="541.8" cy="16.8" r="8.5"/><circle class="st9" cx="584.8" cy="-27.8" r="8.5"/><circle class="st9" cx="608.8" cy="-3.5" r="8.5"/><circle class="st9" cx="645.4" cy="-41.5" r="8.5"/><path class="st3" d="M1238.2 971.1h184.3v124.8h-184.3z"/><path class="st8" d="M1255.5 1074.2l-3.9-5.1 35.5-27.1 15.1 18.5 42.7-45.5 24 25.4 37.1-37.8 4.5 4.5-41.7 42.4-23.8-25.3-43.1 45.9-15.8-19.4z"/><circle class="st9" cx="1254.1" cy="1069.8" r="8.5"/><circle class="st9" cx="1286.8" cy="1047.1" r="8.5"/><circle class="st9" cx="1301.8" cy="1064.8" r="8.5"/><circle class="st9" cx="1344.8" cy="1020.2" r="8.5"/><circle class="st9" cx="1368.8" cy="1044.5" r="8.5"/><circle class="st9" cx="1405.4" cy="1006.5" r="8.5"/><path class="st3" d="M890.4 734.2h195.5v148.5H890.4z"/><path class="st9" d="M1038 795.7l-13.5 3.6-37.1 10 10-37.1 3.6-13.5c-17-4.4-35.9.1-49.2 13.5-20.1 20.1-20.1 52.7 0 72.8 20.1 20.1 52.7 20.1 72.8 0 13.3-13.5 17.7-32.3 13.4-49.3z"/><path class="st8" d="M1024.8 772.4c-6.8-6.8-15-11.2-23.6-13.5l-3.6 13.5-10 37.1 37.1-10 13.5-3.6c-2.1-8.6-6.6-16.8-13.4-23.5z"/><path class="st3" d="M1726.4 59.2h195.5v148.5h-195.5z"/><path class="st8" d="M1874 120.7l-13.5 3.6-37.1 10 10-37.1 3.6-13.5c-17-4.4-35.9.1-49.2 13.5-20.1 20.1-20.1 52.7 0 72.8s52.7 20.1 72.8 0c13.3-13.5 17.7-32.3 13.4-49.3z"/><path class="st9" d="M1860.6 97c-6.8-6.8-15-11.2-23.6-13.5l-3.6 13.5-10 37.1 37.1-10 13.5-3.6c-2.2-8.5-6.6-16.7-13.4-23.5z"/><circle class="st13" cx="1479.7" cy="546.7" r="39.4"/><circle class="st13" cx="513.7" cy="166.7" r="39.4"/><circle class="st13" cx="207.7" cy="740.7" r="39.4"/><circle class="st13" cx="781.7" cy="684.7" r="39.4"/><circle class="st13" cx="1119.7" cy="534.7" r="39.4"/><circle class="st13" cx="903.7" cy="282.7" r="39.4"/><circle class="st13" cx="1319.7" cy="66.7" r="39.4"/></g></svg>